<svg width="224" height="18" viewBox="0 0 224 18" fill="none" xmlns="http://www.w3.org/2000/svg">
<path d="M1.9862 10.9583V6.94027C1.9862 6.05752 1.9862 5.33457 1.9862 4.77144C1.9862 4.2083 1.9862 3.75931 1.9862 3.42448C1.9862 3.07442 1.97859 2.80046 1.96337 2.6026C1.96337 2.38952 1.95576 2.19166 1.94054 2.00903C1.9101 1.61331 1.834 1.31652 1.71224 1.11866C1.59048 0.920804 1.33935 0.783825 0.958853 0.707724C0.867534 0.677285 0.738165 0.662065 0.570746 0.662065C0.418547 0.646845 0.289178 0.639236 0.182639 0.639236C0.0608796 0.639236 0 0.593576 0 0.502256C0 0.380497 0.121759 0.319618 0.365278 0.319618C0.624016 0.319618 0.897974 0.327228 1.18715 0.342447C1.47633 0.342447 1.74268 0.350057 1.9862 0.365277C2.24493 0.365277 2.45801 0.372887 2.62543 0.388106C2.80807 0.388106 2.91461 0.388106 2.94505 0.388106C3.00593 0.388106 3.14291 0.388106 3.35599 0.388106C3.58429 0.372887 3.83541 0.365277 4.10937 0.365277C4.39855 0.350057 4.68012 0.342447 4.95408 0.342447C5.22803 0.327228 5.45633 0.319618 5.63897 0.319618C6.36953 0.319618 7.09247 0.380497 7.80781 0.502256C8.53836 0.608795 9.20804 0.882753 9.81683 1.32413C9.95381 1.43067 10.1136 1.58287 10.2963 1.78073C10.4789 1.96337 10.6463 2.18405 10.7985 2.44279C10.9659 2.70153 11.1029 2.99832 11.2095 3.33316C11.3312 3.66799 11.3921 4.03327 11.3921 4.42899C11.3921 5.2813 11.1866 6.14123 10.7757 7.00876C10.3647 7.86108 9.64941 8.75905 8.62968 9.70268C9.57331 10.9051 10.4332 12.0009 11.2095 12.9902C11.9857 13.9795 12.7086 14.8318 13.3783 15.5471C14.0023 16.2016 14.5502 16.6277 15.022 16.8256C15.4939 17.0235 15.8744 17.1452 16.1635 17.1909C16.3766 17.2213 16.5592 17.2441 16.7114 17.2594C16.8636 17.2594 16.9778 17.2594 17.0539 17.2594C17.1909 17.2594 17.2594 17.305 17.2594 17.3963C17.2594 17.4724 17.2213 17.5181 17.1452 17.5333C17.0691 17.5638 16.9245 17.579 16.7114 17.579H15.0905C14.4513 17.579 13.9566 17.5485 13.6066 17.4877C13.2565 17.4268 12.9369 17.3126 12.6477 17.1452C12.1607 16.8865 11.6889 16.4831 11.2323 15.9352C10.7757 15.3721 10.2202 14.6568 9.56571 13.7892C9.32219 13.4696 9.07867 13.1424 8.83515 12.8075C8.59163 12.4727 8.35572 12.1531 8.12743 11.8487C7.91435 11.5443 7.70888 11.2703 7.51102 11.0268C7.32838 10.7681 7.18379 10.5626 7.07725 10.4104C6.98593 10.3191 6.887 10.2734 6.78046 10.2734L3.97239 10.2278C3.86585 10.2278 3.81258 10.2887 3.81258 10.4104V10.9583C3.81258 12.0542 3.81258 13.0358 3.81258 13.9034C3.8278 14.7557 3.86585 15.4254 3.92673 15.9124C3.95717 16.2472 4.02566 16.5288 4.1322 16.7571C4.23874 16.9854 4.46704 17.1224 4.8171 17.168C4.98452 17.1985 5.16715 17.2213 5.36501 17.2365C5.57809 17.2518 5.7379 17.2594 5.84444 17.2594C5.9662 17.2594 6.02708 17.305 6.02708 17.3963C6.02708 17.5181 5.90532 17.579 5.6618 17.579C5.34218 17.579 5.02257 17.5714 4.70295 17.5562C4.38333 17.5562 4.08654 17.5485 3.81258 17.5333C3.55385 17.5333 3.33316 17.5257 3.15052 17.5105C2.9831 17.5105 2.88417 17.5105 2.85373 17.5105C2.85373 17.5105 2.77002 17.5105 2.6026 17.5105C2.4504 17.5257 2.26015 17.5333 2.03186 17.5333C1.80356 17.5485 1.56765 17.5562 1.32413 17.5562C1.08061 17.5714 0.875144 17.579 0.707725 17.579C0.464207 17.579 0.342448 17.5181 0.342448 17.3963C0.342448 17.305 0.403327 17.2594 0.525086 17.2594C0.631626 17.2594 0.745775 17.2518 0.867534 17.2365C0.989293 17.2213 1.10344 17.1985 1.20998 17.168C1.43828 17.1224 1.59048 16.9854 1.66658 16.7571C1.7579 16.5288 1.82639 16.2472 1.87205 15.9124C1.93293 15.4254 1.96337 14.7557 1.96337 13.9034C1.97859 13.0358 1.9862 12.0542 1.9862 10.9583ZM3.81258 1.46111V8.92647C3.81258 9.04823 3.86585 9.13955 3.97239 9.20043C4.13981 9.30697 4.45182 9.39829 4.90842 9.47439C5.38023 9.53526 5.86727 9.5657 6.36953 9.5657C6.64348 9.5657 6.93266 9.54287 7.23706 9.49722C7.54146 9.43634 7.82303 9.31458 8.08177 9.13194C8.47748 8.85798 8.80471 8.42421 9.06345 7.83064C9.33741 7.22184 9.47439 6.48368 9.47439 5.61614C9.47439 4.18547 9.12433 3.06681 8.42421 2.26015C7.7241 1.4535 6.75763 1.05017 5.52482 1.05017C5.17476 1.05017 4.86276 1.06539 4.5888 1.09583C4.31484 1.12627 4.11698 1.15671 3.99522 1.18715C3.87346 1.23281 3.81258 1.32413 3.81258 1.46111Z" fill="white"/>
<path d="M16.9296 8.92647C16.9296 8.31767 17.0057 7.67083 17.1579 6.98593C17.3101 6.30104 17.546 5.63136 17.8656 4.97691C18.1852 4.30723 18.5809 3.6756 19.0528 3.08203C19.5398 2.47323 20.1181 1.94054 20.7878 1.48394C21.4575 1.02734 22.2185 0.669675 23.0708 0.410937C23.9231 0.136979 24.8744 0 25.9245 0C27.203 0 28.3902 0.197858 29.486 0.593575C30.5818 0.989293 31.5255 1.56004 32.3169 2.30581C33.1235 3.03637 33.7552 3.93434 34.2118 4.99974C34.6684 6.04991 34.8967 7.23706 34.8967 8.56119C34.8967 9.83966 34.676 11.0496 34.2346 12.1911C33.8084 13.3174 33.1996 14.3067 32.4082 15.159C31.6168 15.9961 30.6579 16.6658 29.5317 17.168C28.4054 17.6551 27.1573 17.8986 25.7876 17.8986C24.2199 17.8986 22.8729 17.6246 21.7467 17.0767C20.6356 16.5288 19.7224 15.8211 19.0071 14.9535C18.2918 14.086 17.7667 13.1272 17.4318 12.077C17.097 11.0116 16.9296 9.96142 16.9296 8.92647ZM19.0984 8.28723C19.0984 9.61136 19.2811 10.8137 19.6463 11.8943C20.0268 12.975 20.5443 13.8958 21.1988 14.6568C21.8684 15.4178 22.6446 16.0037 23.5274 16.4147C24.4102 16.8256 25.369 17.0311 26.404 17.0311C26.9214 17.0311 27.5378 16.9397 28.2532 16.7571C28.9685 16.5592 29.6534 16.1787 30.3079 15.6156C30.9775 15.0525 31.5407 14.261 31.9973 13.2413C32.4691 12.2064 32.705 10.8594 32.705 9.20043C32.705 7.83064 32.5071 6.62065 32.1114 5.57048C31.7309 4.52031 31.2211 3.64517 30.5818 2.94505C29.9426 2.22971 29.2044 1.68941 28.3673 1.32413C27.5302 0.958853 26.6627 0.776214 25.7647 0.776214C24.8059 0.776214 23.9155 0.936023 23.0936 1.25564C22.287 1.56004 21.5869 2.03186 20.9933 2.67109C20.3997 3.29511 19.9355 4.07893 19.6007 5.02256C19.2658 5.95098 19.0984 7.0392 19.0984 8.28723Z" fill="white"/>
<path d="M42.7335 13.6294V11.666C42.7335 11.3617 42.7183 11.0953 42.6879 10.867C42.6574 10.6387 42.6194 10.4332 42.5737 10.2506C42.5281 10.068 42.4748 9.90054 42.4139 9.74834C42.353 9.59614 42.2846 9.43634 42.2085 9.26892C42.178 9.20804 42.0791 9.03301 41.9117 8.74383C41.7443 8.43943 41.5312 8.08176 41.2724 7.67083C41.0137 7.24467 40.7321 6.78807 40.4277 6.30104C40.1386 5.79878 39.8494 5.31935 39.5602 4.86276C39.271 4.39094 39.0047 3.96478 38.7612 3.58429C38.5176 3.18857 38.3274 2.89178 38.1904 2.69392C37.9012 2.26776 37.6197 1.91771 37.3457 1.64375C37.087 1.35457 36.8511 1.14149 36.638 1.00451C36.4706 0.882754 36.2955 0.791435 36.1129 0.730555C35.915 0.669675 35.7628 0.639236 35.6563 0.639236C35.5041 0.639236 35.428 0.585966 35.428 0.479426C35.428 0.372887 35.5269 0.319618 35.7248 0.319618C35.8313 0.319618 35.9987 0.327228 36.227 0.342447C36.4706 0.342447 36.7141 0.350057 36.9576 0.365277C37.2163 0.365277 37.4446 0.372887 37.6425 0.388106C37.8403 0.388106 37.9545 0.388106 37.9849 0.388106C38.061 0.388106 38.2893 0.380497 38.6698 0.365277C39.0503 0.334837 39.4613 0.319618 39.9026 0.319618C40.0244 0.319618 40.1005 0.334837 40.1309 0.365277C40.1766 0.395717 40.1994 0.433767 40.1994 0.479426C40.1994 0.525086 40.169 0.563136 40.1081 0.593575C40.0472 0.608796 39.9635 0.639236 39.857 0.684895C39.6591 0.791434 39.5602 0.928413 39.5602 1.09583C39.5602 1.23281 39.583 1.3774 39.6287 1.5296C39.6896 1.66658 39.7657 1.81878 39.857 1.9862C39.9179 2.09274 40.0548 2.33625 40.2679 2.71675C40.481 3.08203 40.7321 3.5158 41.0213 4.01805C41.3105 4.50509 41.6149 5.03018 41.9345 5.59331C42.2693 6.15645 42.5813 6.68914 42.8705 7.1914C43.1597 7.67844 43.4108 8.1122 43.6239 8.4927C43.8522 8.85798 43.9968 9.09389 44.0577 9.20043C44.1338 9.04823 44.2631 8.78949 44.4458 8.42421C44.6436 8.05894 44.8719 7.65561 45.1307 7.21423C45.3894 6.75763 45.6558 6.27821 45.9297 5.77595C46.2189 5.27369 46.4929 4.80188 46.7516 4.3605C47.0103 3.9039 47.2386 3.50819 47.4365 3.17335C47.6344 2.83851 47.7713 2.61021 47.8474 2.48845C47.9996 2.24493 48.0986 2.03186 48.1442 1.84922C48.2051 1.65136 48.2355 1.47633 48.2355 1.32413C48.2355 1.15671 48.2051 1.01973 48.1442 0.913193C48.0986 0.791434 48.0072 0.715335 47.8703 0.684895C47.642 0.608795 47.5278 0.532696 47.5278 0.456596C47.5278 0.365277 47.6496 0.319618 47.8931 0.319618C48.1975 0.319618 48.5019 0.334837 48.8063 0.365277C49.1107 0.380497 49.3085 0.388106 49.3999 0.388106C49.4303 0.388106 49.5444 0.388106 49.7423 0.388106C49.9402 0.372887 50.1532 0.365277 50.3815 0.365277C50.6251 0.350057 50.861 0.342447 51.0893 0.342447C51.3328 0.327228 51.5078 0.319618 51.6144 0.319618C51.8122 0.319618 51.9111 0.365277 51.9111 0.456596C51.9111 0.578356 51.8122 0.639236 51.6144 0.639236C51.4926 0.639236 51.3328 0.662065 51.1349 0.707724C50.9371 0.753384 50.7468 0.837094 50.5642 0.958853C50.3359 1.09583 50.138 1.24803 49.9706 1.41545C49.8184 1.58287 49.6129 1.81878 49.3542 2.12318C49.2324 2.27537 49.0498 2.54172 48.8063 2.92222C48.5628 3.2875 48.2888 3.71365 47.9844 4.20069C47.68 4.67251 47.368 5.18237 47.0484 5.73029C46.7288 6.26299 46.4244 6.77285 46.1352 7.25989C45.8612 7.74693 45.6177 8.18069 45.4046 8.56119C45.1916 8.94169 45.0546 9.21565 44.9937 9.38307C44.8263 9.794 44.7274 10.1821 44.6969 10.5474C44.6665 10.9127 44.6512 11.2856 44.6512 11.666V13.6294C44.6512 13.8121 44.6512 14.1165 44.6512 14.5426C44.6665 14.9688 44.6893 15.4254 44.7197 15.9124C44.7502 16.2472 44.8263 16.5288 44.948 16.7571C45.0698 16.9854 45.3057 17.1224 45.6558 17.168C45.8232 17.1985 46.0058 17.2213 46.2037 17.2365C46.4168 17.2518 46.5766 17.2594 46.6831 17.2594C46.8049 17.2594 46.8657 17.305 46.8657 17.3963C46.8657 17.5181 46.744 17.579 46.5005 17.579C46.1809 17.579 45.8612 17.5714 45.5416 17.5562C45.222 17.5562 44.9252 17.5485 44.6512 17.5333C44.3925 17.5333 44.1718 17.5257 43.9892 17.5105C43.8218 17.5105 43.7228 17.5105 43.6924 17.5105C43.662 17.5105 43.5554 17.5105 43.3728 17.5105C43.2054 17.5257 43.0075 17.5333 42.7792 17.5333C42.5509 17.5485 42.315 17.5562 42.0715 17.5562C41.828 17.5714 41.6225 17.579 41.4551 17.579C41.2116 17.579 41.0898 17.5181 41.0898 17.3963C41.0898 17.305 41.1507 17.2594 41.2724 17.2594C41.379 17.2594 41.4931 17.2518 41.6149 17.2365C41.7366 17.2213 41.8508 17.1985 41.9573 17.168C42.1856 17.1224 42.353 16.9854 42.4596 16.7571C42.5661 16.5288 42.6346 16.2472 42.6651 15.9124C42.6955 15.4254 42.7107 14.9688 42.7107 14.5426C42.7259 14.1165 42.7335 13.8121 42.7335 13.6294Z" fill="white"/>
<path d="M52.2165 15.0677L57.3989 0.890363C57.5358 0.509866 57.6348 0.266348 57.6956 0.159808C57.7565 0.0532694 57.825 0 57.9011 0C57.9772 0 58.0457 0.0532694 58.1066 0.159808C58.1675 0.251128 58.2664 0.471817 58.4034 0.821875C58.4643 0.974073 58.6012 1.33935 58.8143 1.91771C59.0426 2.48084 59.309 3.18096 59.6134 4.01805C59.933 4.83993 60.283 5.74551 60.6635 6.7348C61.044 7.7241 61.4169 8.70578 61.7822 9.67985C62.1627 10.6387 62.5204 11.5519 62.8552 12.4194C63.2053 13.287 63.4944 14.0099 63.7227 14.5883C63.9206 15.0905 64.1108 15.5015 64.2935 15.8211C64.4913 16.1407 64.6664 16.3918 64.8186 16.5745C64.986 16.7571 65.1382 16.8865 65.2752 16.9626C65.4274 17.0387 65.5643 17.0919 65.6861 17.1224C65.8535 17.1833 66.0133 17.2213 66.1655 17.2365C66.3329 17.2518 66.4775 17.2594 66.5993 17.2594C66.7515 17.2594 66.8276 17.305 66.8276 17.3963C66.8276 17.4724 66.7819 17.5181 66.6906 17.5333C66.5993 17.5638 66.4928 17.579 66.371 17.579C66.2797 17.579 66.1123 17.579 65.8687 17.579C65.6404 17.579 65.3589 17.579 65.024 17.579C64.7044 17.579 64.3467 17.5714 63.951 17.5562C63.5705 17.5562 63.1824 17.5485 62.7867 17.5333C62.5736 17.5181 62.4062 17.5105 62.2844 17.5105C62.1627 17.4953 62.1018 17.4496 62.1018 17.3735C62.1018 17.2974 62.1551 17.2441 62.2616 17.2137C62.3377 17.1833 62.3986 17.1224 62.4443 17.0311C62.4899 16.9245 62.4747 16.7799 62.3986 16.5973L60.2754 10.9812C60.2298 10.8898 60.1613 10.8442 60.07 10.8442H55.1615C55.055 10.8442 54.9789 10.9051 54.9332 11.0268L53.5634 15.0677C53.3504 15.6613 53.2438 16.1711 53.2438 16.5973C53.2438 16.8256 53.3351 16.993 53.5178 17.0996C53.7156 17.2061 53.9135 17.2594 54.1114 17.2594H54.3397C54.4919 17.2594 54.568 17.305 54.568 17.3963C54.568 17.5181 54.4538 17.579 54.2255 17.579C54.0885 17.579 53.9287 17.5714 53.7461 17.5562C53.5634 17.5562 53.3884 17.5485 53.221 17.5333C53.0536 17.5333 52.8938 17.5257 52.7416 17.5105C52.6046 17.5105 52.5057 17.5105 52.4448 17.5105C52.3839 17.5105 52.2621 17.5105 52.0795 17.5105C51.9121 17.5257 51.7066 17.5333 51.4631 17.5333C51.2196 17.5485 50.9608 17.5562 50.6869 17.5562C50.4129 17.5714 50.139 17.579 49.865 17.579C49.5758 17.579 49.4312 17.5181 49.4312 17.3963C49.4312 17.305 49.4997 17.2594 49.6367 17.2594C49.7128 17.2594 49.8194 17.2594 49.9563 17.2594C50.0933 17.2441 50.2075 17.2289 50.2988 17.2137C50.8315 17.1376 51.2272 16.9093 51.4859 16.5288C51.7599 16.1331 52.0034 15.6461 52.2165 15.0677ZM55.4127 10.0223H59.7732C59.8645 10.0223 59.8949 9.96903 59.8645 9.86249L57.6956 3.69843C57.5739 3.3636 57.4597 3.3636 57.3532 3.69843L55.3442 9.86249C55.2985 9.96903 55.3213 10.0223 55.4127 10.0223Z" fill="white"/>
<path d="M72.0144 6.94027V11.004C72.0144 12.6782 72.0449 13.9186 72.1057 14.7252C72.1666 15.5319 72.3036 16.0342 72.5167 16.232C72.608 16.3233 72.7145 16.407 72.8363 16.4831C72.9733 16.544 73.1407 16.5973 73.3386 16.643C73.5516 16.6734 73.8104 16.7038 74.1148 16.7343C74.4344 16.7495 74.8149 16.7571 75.2563 16.7571C75.8651 16.7571 76.4054 16.7267 76.8772 16.6658C77.3642 16.6049 77.7447 16.407 78.0187 16.0722C78.1709 15.8896 78.3002 15.6689 78.4068 15.4101C78.5133 15.1514 78.5818 14.9155 78.6122 14.7024C78.6427 14.5046 78.7112 14.4056 78.8177 14.4056C78.909 14.4056 78.9547 14.5198 78.9547 14.7481C78.9547 14.809 78.9471 14.9307 78.9319 15.1134C78.9166 15.296 78.8862 15.5015 78.8405 15.7298C78.8101 15.9581 78.7721 16.194 78.7264 16.4375C78.696 16.6658 78.6579 16.8636 78.6122 17.0311C78.5666 17.168 78.5209 17.2746 78.4753 17.3507C78.4448 17.4268 78.384 17.4877 78.2926 17.5333C78.2013 17.579 78.0643 17.6094 77.8817 17.6246C77.7143 17.6399 77.4784 17.6475 77.174 17.6475C76.3521 17.6475 75.6368 17.6399 75.028 17.6246C74.4192 17.6094 73.8713 17.5942 73.3842 17.579C72.8972 17.5485 72.471 17.5257 72.1057 17.5105C71.7405 17.5105 71.3904 17.5105 71.0556 17.5105C71.0099 17.5105 70.8958 17.5105 70.7131 17.5105C70.5457 17.5257 70.3478 17.5333 70.1195 17.5333C69.8912 17.5485 69.6553 17.5562 69.4118 17.5562C69.1835 17.5714 68.9857 17.579 68.8182 17.579C68.5747 17.579 68.453 17.5181 68.453 17.3963C68.453 17.305 68.5138 17.2594 68.6356 17.2594C68.7421 17.2594 68.8563 17.2518 68.9781 17.2365C69.0998 17.2213 69.214 17.1985 69.3205 17.168C69.5488 17.1224 69.701 16.9854 69.7771 16.7571C69.8684 16.5288 69.9369 16.2472 69.9826 15.9124C70.0434 15.4254 70.0739 14.7557 70.0739 13.9034C70.0891 13.0358 70.0967 12.0542 70.0967 10.9583V6.94027C70.0967 6.05752 70.0967 5.33457 70.0967 4.77144C70.0967 4.2083 70.0967 3.75931 70.0967 3.42448C70.0967 3.07442 70.0891 2.80046 70.0739 2.6026C70.0739 2.38952 70.0663 2.19166 70.0511 2.00903C70.0206 1.61331 69.9445 1.31652 69.8228 1.11866C69.701 0.920804 69.4499 0.783825 69.0694 0.707724C68.9781 0.677285 68.8487 0.662065 68.6813 0.662065C68.5291 0.646845 68.3997 0.639236 68.2932 0.639236C68.1714 0.639236 68.1105 0.593576 68.1105 0.502256C68.1105 0.380497 68.2323 0.319618 68.4758 0.319618C68.7345 0.319618 69.0085 0.327228 69.2977 0.342447C69.5868 0.342447 69.8532 0.350057 70.0967 0.365277C70.3555 0.365277 70.5685 0.372887 70.736 0.388106C70.9186 0.388106 71.0251 0.388106 71.0556 0.388106C71.086 0.388106 71.2002 0.388106 71.398 0.388106C71.5959 0.372887 71.8242 0.365277 72.0829 0.365277C72.3416 0.350057 72.6004 0.342447 72.8591 0.342447C73.1331 0.327228 73.3538 0.319618 73.5212 0.319618C73.7647 0.319618 73.8865 0.380497 73.8865 0.502256C73.8865 0.593576 73.8256 0.639236 73.7038 0.639236C73.6277 0.639236 73.5136 0.646845 73.3614 0.662065C73.2244 0.662065 73.0874 0.677285 72.9504 0.707724C72.6156 0.768604 72.3873 0.905583 72.2655 1.11866C72.159 1.31652 72.0905 1.61331 72.0601 2.00903C72.0449 2.19166 72.0296 2.38952 72.0144 2.6026C72.0144 2.80046 72.0144 3.07442 72.0144 3.42448C72.0144 3.75931 72.0144 4.2083 72.0144 4.77144C72.0144 5.33457 72.0144 6.05752 72.0144 6.94027Z" fill="white"/>
<path d="M98.7252 17.8986C97.0053 17.8986 95.5442 17.6931 94.3418 17.2822C93.1547 16.8713 92.1045 16.2548 91.1913 15.433C90.6434 14.9307 90.1868 14.398 89.8215 13.8349C89.4715 13.2717 89.1899 12.701 88.9768 12.1226C88.779 11.5443 88.6344 10.9659 88.543 10.3876C88.4669 9.794 88.4289 9.22326 88.4289 8.67534C88.4289 8.29484 88.4669 7.85347 88.543 7.35121C88.6191 6.83373 88.7485 6.30104 88.9312 5.75312C89.129 5.18998 89.3954 4.62685 89.7302 4.06371C90.065 3.48536 90.4836 2.94505 90.9858 2.44279C91.3207 2.10796 91.7088 1.78834 92.1502 1.48394C92.5915 1.17954 93.0938 0.920803 93.6569 0.707724C94.2201 0.494646 94.8517 0.327227 95.5518 0.205469C96.2671 0.0684896 97.0662 0 97.9489 0C98.4055 0 98.9306 0.0228296 99.5242 0.0684887C100.118 0.098929 100.696 0.167419 101.259 0.273957C101.701 0.350057 102.104 0.418546 102.469 0.479426C102.85 0.540306 103.223 0.585966 103.588 0.616406C103.71 0.631626 103.786 0.662065 103.816 0.707724C103.862 0.738165 103.885 0.791434 103.885 0.867534C103.885 0.958853 103.869 1.09583 103.839 1.27847C103.824 1.44589 103.801 1.73507 103.771 2.146C103.755 2.32864 103.74 2.54172 103.725 2.78524C103.725 3.01354 103.725 3.24184 103.725 3.47014C103.725 3.69843 103.717 3.9039 103.702 4.08654C103.702 4.26918 103.702 4.40616 103.702 4.49748C103.687 4.8171 103.618 4.97691 103.497 4.97691C103.375 4.97691 103.314 4.8171 103.314 4.49748C103.314 4.0561 103.23 3.62233 103.063 3.19618C102.895 2.77002 102.66 2.42757 102.355 2.16883C101.959 1.81878 101.351 1.51438 100.529 1.25564C99.7068 0.996903 98.7936 0.867534 97.7891 0.867534C97.0281 0.867534 96.3661 0.920803 95.8029 1.02734C95.2398 1.11866 94.7452 1.24803 94.319 1.41545C93.9081 1.56765 93.558 1.74268 93.2688 1.94054C92.9796 2.1384 92.7361 2.33625 92.5383 2.53411C91.7012 3.34077 91.1456 4.24635 90.8717 5.25086C90.613 6.24016 90.4836 7.32077 90.4836 8.4927C90.4836 9.58853 90.6814 10.6387 91.0772 11.6432C91.4881 12.6477 92.0512 13.5381 92.7666 14.3143C93.4971 15.0753 94.3647 15.6917 95.3692 16.1635C96.3889 16.6201 97.5076 16.8484 98.7252 16.8484C99.5927 16.8484 100.354 16.7799 101.008 16.643C101.678 16.4908 102.241 16.1787 102.698 15.7069C102.941 15.4482 103.131 15.121 103.268 14.7252C103.42 14.3143 103.512 14.0023 103.542 13.7892C103.588 13.5609 103.664 13.4468 103.771 13.4468C103.831 13.4468 103.869 13.4848 103.885 13.5609C103.915 13.6218 103.93 13.6979 103.93 13.7892C103.93 13.8349 103.915 13.9795 103.885 14.223C103.854 14.4513 103.816 14.7176 103.771 15.022C103.725 15.3264 103.672 15.6384 103.611 15.9581C103.55 16.2625 103.489 16.5136 103.428 16.7114C103.352 16.9245 103.284 17.0691 103.223 17.1452C103.177 17.2061 103.048 17.2822 102.835 17.3735C102.606 17.4648 102.332 17.5409 102.013 17.6018C101.693 17.6779 101.351 17.7312 100.985 17.7616C100.62 17.8073 100.24 17.8377 99.8438 17.8529C99.4633 17.8834 99.0904 17.8986 98.7252 17.8986Z" fill="white"/>
<path d="M107.508 15.0677L112.69 0.890363C112.827 0.509866 112.926 0.266348 112.987 0.159808C113.048 0.0532694 113.116 0 113.192 0C113.268 0 113.337 0.0532694 113.398 0.159808C113.459 0.251128 113.557 0.471817 113.694 0.821875C113.755 0.974073 113.892 1.33935 114.105 1.91771C114.334 2.48084 114.6 3.18096 114.904 4.01805C115.224 4.83993 115.574 5.74551 115.955 6.7348C116.335 7.7241 116.708 8.70578 117.073 9.67985C117.454 10.6387 117.811 11.5519 118.146 12.4194C118.496 13.287 118.785 14.0099 119.014 14.5883C119.212 15.0905 119.402 15.5015 119.585 15.8211C119.782 16.1407 119.957 16.3918 120.11 16.5745C120.277 16.7571 120.429 16.8865 120.566 16.9626C120.718 17.0387 120.855 17.0919 120.977 17.1224C121.145 17.1833 121.304 17.2213 121.457 17.2365C121.624 17.2518 121.769 17.2594 121.89 17.2594C122.043 17.2594 122.119 17.305 122.119 17.3963C122.119 17.4724 122.073 17.5181 121.982 17.5333C121.89 17.5638 121.784 17.579 121.662 17.579C121.571 17.579 121.403 17.579 121.16 17.579C120.931 17.579 120.65 17.579 120.315 17.579C119.995 17.579 119.638 17.5714 119.242 17.5562C118.862 17.5562 118.473 17.5485 118.078 17.5333C117.865 17.5181 117.697 17.5105 117.575 17.5105C117.454 17.4953 117.393 17.4496 117.393 17.3735C117.393 17.2974 117.446 17.2441 117.553 17.2137C117.629 17.1833 117.69 17.1224 117.735 17.0311C117.781 16.9245 117.766 16.7799 117.69 16.5973L115.566 10.9812C115.521 10.8898 115.452 10.8442 115.361 10.8442H110.453C110.346 10.8442 110.27 10.9051 110.224 11.0268L108.854 15.0677C108.641 15.6613 108.535 16.1711 108.535 16.5973C108.535 16.8256 108.626 16.993 108.809 17.0996C109.007 17.2061 109.205 17.2594 109.402 17.2594H109.631C109.783 17.2594 109.859 17.305 109.859 17.3963C109.859 17.5181 109.745 17.579 109.517 17.579C109.38 17.579 109.22 17.5714 109.037 17.5562C108.854 17.5562 108.679 17.5485 108.512 17.5333C108.345 17.5333 108.185 17.5257 108.033 17.5105C107.896 17.5105 107.797 17.5105 107.736 17.5105C107.675 17.5105 107.553 17.5105 107.371 17.5105C107.203 17.5257 106.998 17.5333 106.754 17.5333C106.511 17.5485 106.252 17.5562 105.978 17.5562C105.704 17.5714 105.43 17.579 105.156 17.579C104.867 17.579 104.722 17.5181 104.722 17.3963C104.722 17.305 104.791 17.2594 104.928 17.2594C105.004 17.2594 105.11 17.2594 105.247 17.2594C105.384 17.2441 105.498 17.2289 105.59 17.2137C106.123 17.1376 106.518 16.9093 106.777 16.5288C107.051 16.1331 107.294 15.6461 107.508 15.0677ZM110.704 10.0223H115.064C115.156 10.0223 115.186 9.96903 115.156 9.86249L112.987 3.69843C112.865 3.3636 112.751 3.3636 112.644 3.69843L110.635 9.86249C110.59 9.96903 110.612 10.0223 110.704 10.0223Z" fill="white"/>
<path d="M127.209 17.8986C126.676 17.8986 126.151 17.8529 125.634 17.7616C125.116 17.6703 124.621 17.5105 124.15 17.2822C123.982 17.2061 123.883 17.1224 123.853 17.0311C123.822 16.9245 123.807 16.7191 123.807 16.4147C123.807 15.8363 123.822 15.334 123.853 14.9079C123.883 14.4817 123.906 14.1773 123.921 13.9947C123.936 13.7512 123.997 13.6294 124.104 13.6294C124.21 13.6294 124.264 13.7131 124.264 13.8805C124.264 13.9871 124.264 14.1165 124.264 14.2687C124.279 14.4056 124.302 14.5578 124.332 14.7252C124.424 15.1514 124.576 15.5167 124.789 15.8211C125.002 16.1103 125.261 16.3462 125.565 16.5288C125.885 16.7114 126.227 16.8484 126.592 16.9397C126.958 17.0158 127.331 17.0539 127.711 17.0539C128.259 17.0539 128.738 16.9626 129.149 16.7799C129.56 16.5973 129.895 16.369 130.154 16.095C130.428 15.8059 130.633 15.4786 130.77 15.1134C130.907 14.7481 130.976 14.3828 130.976 14.0175C130.976 13.6218 130.93 13.2641 130.839 12.9445C130.747 12.6097 130.595 12.2901 130.382 11.9857C130.184 11.6661 129.918 11.3464 129.583 11.0268C129.248 10.692 128.837 10.3191 128.35 9.90815L127.323 9.06345C126.714 8.56119 126.219 8.09698 125.839 7.67083C125.458 7.24467 125.154 6.83373 124.926 6.43802C124.713 6.02708 124.561 5.63897 124.469 5.27369C124.393 4.8932 124.355 4.50509 124.355 4.10937C124.355 3.50058 124.462 2.94505 124.675 2.44279C124.903 1.94054 125.223 1.50677 125.634 1.14149C126.044 0.776214 126.539 0.494646 127.117 0.296788C127.696 0.0989294 128.35 0 129.081 0C129.522 0 129.91 0.0228296 130.245 0.0684887C130.595 0.098929 130.915 0.152199 131.204 0.228298C131.417 0.273958 131.577 0.304398 131.683 0.319618C131.805 0.334837 131.912 0.342447 132.003 0.342447C132.155 0.342447 132.231 0.395717 132.231 0.502256C132.231 0.563135 132.216 0.791434 132.186 1.18715C132.155 1.56765 132.14 2.146 132.14 2.92222C132.14 3.27228 132.087 3.44731 131.98 3.44731C131.904 3.44731 131.858 3.42448 131.843 3.37882C131.828 3.31794 131.813 3.24184 131.798 3.15052C131.782 3.01354 131.744 2.82329 131.683 2.57977C131.638 2.32103 131.577 2.13079 131.501 2.00903C131.47 1.94815 131.402 1.84922 131.295 1.71224C131.189 1.57526 131.021 1.43828 130.793 1.3013C130.58 1.16432 130.298 1.05017 129.948 0.958853C129.598 0.852314 129.165 0.799044 128.647 0.799044C127.856 0.799044 127.186 1.03495 126.638 1.50677C126.105 1.96337 125.839 2.61021 125.839 3.44731C125.839 3.76692 125.877 4.07132 125.953 4.3605C126.044 4.63446 126.197 4.91603 126.41 5.2052C126.623 5.49438 126.904 5.80639 127.254 6.14123C127.62 6.47607 128.076 6.85656 128.624 7.28272L129.263 7.78498C129.933 8.31767 130.481 8.81232 130.907 9.26892C131.349 9.72551 131.691 10.1669 131.935 10.593C132.193 11.004 132.368 11.4225 132.46 11.8487C132.551 12.2596 132.597 12.6934 132.597 13.15C132.597 13.3783 132.566 13.6522 132.505 13.9719C132.46 14.2915 132.361 14.6263 132.209 14.9764C132.072 15.3264 131.874 15.6765 131.615 16.0266C131.371 16.3614 131.052 16.6658 130.656 16.9397C130.169 17.2898 129.629 17.5333 129.035 17.6703C128.442 17.8225 127.833 17.8986 127.209 17.8986Z" fill="white"/>
<path d="M152.42 6.94027V10.9583C152.42 12.0542 152.42 13.0358 152.42 13.9034C152.435 14.7557 152.473 15.4254 152.534 15.9124C152.565 16.2472 152.633 16.5288 152.74 16.7571C152.846 16.9854 153.075 17.1224 153.425 17.168C153.592 17.1985 153.775 17.2213 153.972 17.2365C154.186 17.2518 154.345 17.2594 154.452 17.2594C154.574 17.2594 154.635 17.305 154.635 17.3963C154.635 17.5181 154.513 17.579 154.269 17.579C153.95 17.579 153.63 17.5714 153.31 17.5562C152.991 17.5562 152.694 17.5485 152.42 17.5333C152.161 17.5333 151.941 17.5257 151.758 17.5105C151.591 17.5105 151.492 17.5105 151.461 17.5105C151.431 17.5105 151.324 17.5105 151.142 17.5105C150.974 17.5257 150.776 17.5333 150.548 17.5333C150.32 17.5485 150.084 17.5562 149.84 17.5562C149.597 17.5714 149.391 17.579 149.224 17.579C148.98 17.579 148.859 17.5181 148.859 17.3963C148.859 17.305 148.919 17.2594 149.041 17.2594C149.148 17.2594 149.262 17.2518 149.384 17.2365C149.505 17.2213 149.62 17.1985 149.726 17.168C149.954 17.1224 150.107 16.9854 150.183 16.7571C150.274 16.5288 150.343 16.2472 150.388 15.9124C150.449 15.4254 150.48 14.7557 150.48 13.9034C150.495 13.0358 150.502 12.0542 150.502 10.9583V8.56119C150.502 8.46987 150.457 8.42421 150.365 8.42421H140.686C140.594 8.42421 140.549 8.46987 140.549 8.56119V10.9583C140.549 12.0542 140.549 13.0358 140.549 13.9034C140.564 14.7557 140.602 15.4254 140.663 15.9124C140.693 16.2472 140.762 16.5288 140.868 16.7571C140.975 16.9854 141.203 17.1224 141.553 17.168C141.72 17.1985 141.903 17.2213 142.101 17.2365C142.314 17.2518 142.474 17.2594 142.58 17.2594C142.702 17.2594 142.763 17.305 142.763 17.3963C142.763 17.5181 142.641 17.579 142.398 17.579C142.078 17.579 141.759 17.5714 141.439 17.5562C141.119 17.5562 140.822 17.5485 140.549 17.5333C140.29 17.5333 140.069 17.5257 139.886 17.5105C139.719 17.5105 139.62 17.5105 139.59 17.5105C139.559 17.5105 139.453 17.5105 139.27 17.5105C139.103 17.5257 138.905 17.5333 138.676 17.5333C138.448 17.5485 138.212 17.5562 137.969 17.5562C137.725 17.5714 137.52 17.579 137.352 17.579C137.109 17.579 136.987 17.5181 136.987 17.3963C136.987 17.305 137.048 17.2594 137.17 17.2594C137.276 17.2594 137.39 17.2518 137.512 17.2365C137.634 17.2213 137.748 17.1985 137.855 17.168C138.083 17.1224 138.235 16.9854 138.311 16.7571C138.403 16.5288 138.471 16.2472 138.517 15.9124C138.578 15.4254 138.608 14.7557 138.608 13.9034C138.623 13.0358 138.631 12.0542 138.631 10.9583V6.94027C138.631 6.05752 138.631 5.33457 138.631 4.77144C138.631 4.2083 138.631 3.75931 138.631 3.42448C138.631 3.07442 138.623 2.80046 138.608 2.6026C138.608 2.38952 138.6 2.19166 138.585 2.00903C138.555 1.61331 138.479 1.31652 138.357 1.11866C138.235 0.920804 137.984 0.783825 137.603 0.707724C137.512 0.677285 137.383 0.662065 137.215 0.662065C137.063 0.646845 136.934 0.639236 136.827 0.639236C136.706 0.639236 136.645 0.593576 136.645 0.502256C136.645 0.380497 136.766 0.319618 137.01 0.319618C137.269 0.319618 137.543 0.327228 137.832 0.342447C138.121 0.342447 138.387 0.350057 138.631 0.365277C138.89 0.365277 139.103 0.372887 139.27 0.388106C139.453 0.388106 139.559 0.388106 139.59 0.388106C139.62 0.388106 139.719 0.388106 139.886 0.388106C140.069 0.372887 140.275 0.365277 140.503 0.365277C140.731 0.350057 140.967 0.342447 141.211 0.342447C141.454 0.327228 141.66 0.319618 141.827 0.319618C142.071 0.319618 142.192 0.380497 142.192 0.502256C142.192 0.593576 142.131 0.639236 142.01 0.639236C141.934 0.639236 141.85 0.646845 141.759 0.662065C141.682 0.662065 141.576 0.677285 141.439 0.707724C141.135 0.768604 140.921 0.905583 140.8 1.11866C140.693 1.31652 140.625 1.61331 140.594 2.00903C140.579 2.19166 140.564 2.38952 140.549 2.6026C140.549 2.80046 140.549 3.07442 140.549 3.42448C140.549 3.75931 140.549 4.2083 140.549 4.77144C140.549 5.33457 140.549 6.05752 140.549 6.94027V7.4197C140.549 7.51102 140.594 7.55668 140.686 7.55668H150.365C150.457 7.55668 150.502 7.51102 150.502 7.4197V6.94027C150.502 6.05752 150.502 5.33457 150.502 4.77144C150.502 4.2083 150.502 3.75931 150.502 3.42448C150.502 3.07442 150.495 2.80046 150.48 2.6026C150.48 2.38952 150.472 2.19166 150.457 2.00903C150.426 1.61331 150.35 1.31652 150.228 1.11866C150.107 0.920804 149.856 0.783825 149.475 0.707724C149.384 0.677285 149.254 0.662065 149.087 0.662065C148.935 0.646845 148.805 0.639236 148.699 0.639236C148.577 0.639236 148.516 0.593576 148.516 0.502256C148.516 0.380497 148.638 0.319618 148.881 0.319618C149.14 0.319618 149.414 0.327228 149.703 0.342447C149.992 0.342447 150.259 0.350057 150.502 0.365277C150.761 0.365277 150.974 0.372887 151.142 0.388106C151.324 0.388106 151.431 0.388106 151.461 0.388106C151.492 0.388106 151.591 0.388106 151.758 0.388106C151.941 0.372887 152.146 0.365277 152.374 0.365277C152.603 0.350057 152.839 0.342447 153.082 0.342447C153.326 0.327228 153.531 0.319618 153.699 0.319618C153.942 0.319618 154.064 0.380497 154.064 0.502256C154.064 0.593576 154.003 0.639236 153.881 0.639236C153.805 0.639236 153.721 0.646845 153.63 0.662065C153.554 0.662065 153.447 0.677285 153.31 0.707724C153.006 0.768604 152.793 0.905583 152.671 1.11866C152.565 1.31652 152.496 1.61331 152.466 2.00903C152.45 2.19166 152.435 2.38952 152.42 2.6026C152.42 2.80046 152.42 3.07442 152.42 3.42448C152.42 3.75931 152.42 4.2083 152.42 4.77144C152.42 5.33457 152.42 6.05752 152.42 6.94027Z" fill="white"/>
<path d="M176.002 0.616406L177.532 14.6568C177.547 14.8698 177.578 15.0981 177.623 15.3417C177.669 15.5852 177.73 15.8211 177.806 16.0494C177.897 16.2777 178.019 16.4908 178.171 16.6886C178.323 16.8713 178.521 17.0006 178.765 17.0767C179.1 17.1833 179.396 17.2441 179.655 17.2594C179.929 17.2746 180.127 17.2822 180.249 17.2822C180.371 17.2822 180.431 17.3202 180.431 17.3963C180.431 17.4724 180.386 17.5257 180.294 17.5562C180.203 17.5866 180.089 17.6018 179.952 17.6018C179.83 17.6018 179.602 17.6018 179.267 17.6018C178.932 17.6018 178.567 17.5942 178.171 17.579C177.776 17.579 177.387 17.5714 177.007 17.5562C176.642 17.5409 176.352 17.5257 176.139 17.5105C175.881 17.4801 175.706 17.4496 175.614 17.4192C175.538 17.3887 175.5 17.3431 175.5 17.2822C175.5 17.1909 175.553 17.1376 175.66 17.1224C175.721 17.1072 175.759 17.0235 175.774 16.8713C175.789 16.7038 175.782 16.5136 175.751 16.3005L174.655 4.45182H174.587L168.994 16.3233C168.75 16.8256 168.59 17.1528 168.514 17.305C168.438 17.4572 168.347 17.5333 168.24 17.5333C168.164 17.5333 168.08 17.4648 167.989 17.3279C167.898 17.1757 167.746 16.8941 167.533 16.4831C167.38 16.2092 167.16 15.7906 166.87 15.2275C166.596 14.6491 166.315 14.0708 166.026 13.4924C165.737 12.9141 165.478 12.4042 165.25 11.9628C165.021 11.5062 164.892 11.2475 164.861 11.1866C164.831 11.1257 164.74 10.9355 164.587 10.6159C164.435 10.2963 164.253 9.91576 164.04 9.47439C163.826 9.01779 163.598 8.53075 163.355 8.01328C163.126 7.4958 162.906 7.00876 162.693 6.55217C162.48 6.09557 162.297 5.69985 162.145 5.36501C161.992 5.01496 161.894 4.78666 161.848 4.68012H161.757L160.843 15.2732C160.828 15.4558 160.821 15.6461 160.821 15.8439C160.821 16.0418 160.821 16.2396 160.821 16.4375C160.821 16.6049 160.874 16.7571 160.98 16.8941C161.102 17.0311 161.247 17.1148 161.414 17.1452C161.612 17.1909 161.787 17.2213 161.939 17.2365C162.091 17.2518 162.206 17.2594 162.282 17.2594C162.403 17.2594 162.464 17.2974 162.464 17.3735C162.464 17.5105 162.327 17.579 162.053 17.579C161.84 17.579 161.62 17.5714 161.391 17.5562C161.163 17.5562 160.942 17.5485 160.729 17.5333C160.531 17.5333 160.356 17.5257 160.204 17.5105C160.067 17.5105 159.976 17.5105 159.93 17.5105C159.885 17.5105 159.786 17.5105 159.633 17.5105C159.481 17.5257 159.306 17.5333 159.108 17.5333C158.926 17.5485 158.735 17.5562 158.538 17.5562C158.34 17.5714 158.165 17.579 158.012 17.579C157.754 17.579 157.624 17.5105 157.624 17.3735C157.624 17.2974 157.7 17.2594 157.853 17.2594C157.944 17.2594 158.035 17.2594 158.127 17.2594C158.233 17.2441 158.37 17.2213 158.538 17.1909C158.918 17.1148 159.154 16.8941 159.245 16.5288C159.337 16.1483 159.405 15.7374 159.451 15.296L161.095 0.410937C161.125 0.136979 161.209 0 161.346 0C161.467 0 161.582 0.114149 161.688 0.342447L168.674 14.7024L175.386 0.365277C175.493 0.121759 175.607 0 175.728 0C175.865 0 175.957 0.205469 176.002 0.616406Z" fill="white"/>
<path d="M184.513 10.9583V6.94027C184.513 6.05752 184.513 5.33457 184.513 4.77144C184.513 4.2083 184.513 3.75931 184.513 3.42448C184.513 3.07442 184.506 2.80046 184.491 2.6026C184.491 2.38952 184.483 2.19166 184.468 2.00903C184.437 1.61331 184.361 1.31652 184.24 1.11866C184.118 0.920804 183.867 0.783825 183.486 0.707724C183.395 0.677285 183.265 0.662065 183.098 0.662065C182.946 0.646845 182.816 0.639236 182.71 0.639236C182.588 0.639236 182.527 0.593576 182.527 0.502256C182.527 0.380497 182.649 0.319618 182.893 0.319618C183.151 0.319618 183.425 0.319618 183.714 0.319618C184.004 0.319618 184.278 0.327228 184.536 0.342447L185.472 0.388106C185.518 0.388106 185.784 0.388106 186.271 0.388106C186.774 0.388106 187.329 0.388106 187.938 0.388106C188.562 0.388106 189.14 0.388106 189.673 0.388106C190.221 0.372887 190.563 0.365277 190.7 0.365277C191.142 0.334837 191.469 0.296788 191.682 0.251128C191.743 0.235908 191.796 0.213078 191.842 0.182638C191.888 0.152198 191.941 0.136979 192.002 0.136979C192.063 0.136979 192.093 0.205468 192.093 0.342447C192.093 0.418547 192.07 0.540306 192.024 0.707724C191.979 0.859924 191.941 1.09583 191.91 1.41545C191.91 1.47633 191.903 1.57526 191.887 1.71224C191.887 1.84922 191.88 2.00142 191.865 2.16883C191.849 2.32103 191.834 2.47323 191.819 2.62543C191.819 2.76241 191.811 2.86134 191.796 2.92222C191.781 2.9831 191.758 3.04398 191.728 3.10486C191.712 3.15052 191.682 3.17335 191.636 3.17335C191.515 3.17335 191.454 3.07442 191.454 2.87656C191.454 2.80046 191.446 2.6787 191.431 2.51128C191.416 2.34386 191.378 2.19166 191.317 2.05469C191.241 1.87205 191.104 1.71985 190.906 1.59809C190.708 1.46111 190.305 1.35457 189.696 1.27847C189.605 1.26325 189.399 1.25564 189.079 1.25564C188.76 1.24042 188.425 1.23281 188.075 1.23281C187.725 1.21759 187.398 1.20998 187.093 1.20998C186.804 1.20998 186.629 1.20998 186.568 1.20998C186.477 1.20998 186.431 1.28608 186.431 1.43828V7.73932C186.431 7.89152 186.477 7.96762 186.568 7.96762C186.644 7.96762 186.85 7.96762 187.185 7.96762C187.519 7.96762 187.885 7.96762 188.28 7.96762C188.691 7.96762 189.079 7.96762 189.445 7.96762C189.81 7.9524 190.061 7.93718 190.198 7.92196C190.472 7.89152 190.693 7.86108 190.86 7.83064C191.028 7.8002 191.165 7.7241 191.271 7.60234C191.439 7.40448 191.553 7.30555 191.614 7.30555C191.69 7.30555 191.728 7.36643 191.728 7.48819C191.728 7.56429 191.705 7.70127 191.659 7.89913C191.614 8.09698 191.575 8.38616 191.545 8.76666C191.53 8.88842 191.515 9.0254 191.499 9.1776C191.499 9.31458 191.492 9.45917 191.477 9.61136C191.477 9.74834 191.469 9.87771 191.454 9.99947C191.454 10.106 191.454 10.1821 191.454 10.2278C191.454 10.3191 191.446 10.418 191.431 10.5246C191.416 10.6159 191.37 10.6615 191.294 10.6615C191.187 10.6615 191.134 10.593 191.134 10.4561C191.134 10.3343 191.127 10.2202 191.111 10.1136C191.111 9.99186 191.088 9.85488 191.043 9.70268C190.997 9.53526 190.898 9.37546 190.746 9.22326C190.594 9.05584 190.297 8.9493 189.856 8.90364C189.703 8.88842 189.46 8.8732 189.125 8.85798C188.805 8.84276 188.471 8.83515 188.121 8.83515C187.786 8.81993 187.466 8.81232 187.162 8.81232C186.873 8.7971 186.682 8.78949 186.591 8.78949C186.484 8.78949 186.431 8.84276 186.431 8.9493V10.9583C186.431 11.1562 186.431 11.4454 186.431 11.8259C186.431 12.2064 186.431 12.6021 186.431 13.013C186.431 13.4239 186.431 13.8044 186.431 14.1545C186.431 14.5046 186.431 14.7405 186.431 14.8622C186.446 15.2579 186.484 15.5776 186.545 15.8211C186.621 16.0646 186.751 16.2548 186.933 16.3918C187.131 16.5288 187.398 16.6201 187.732 16.6658C188.067 16.7114 188.516 16.7343 189.079 16.7343C189.384 16.7343 189.749 16.7267 190.175 16.7114C190.601 16.681 190.967 16.6049 191.271 16.4831C191.576 16.3614 191.804 16.1787 191.956 15.9352C192.108 15.6765 192.222 15.3112 192.298 14.8394C192.344 14.6111 192.413 14.497 192.504 14.497C192.58 14.497 192.618 14.535 192.618 14.6111C192.633 14.6872 192.641 14.7633 192.641 14.8394C192.641 14.8851 192.626 15.0068 192.595 15.2047C192.58 15.3873 192.557 15.6004 192.527 15.8439C192.496 16.0722 192.466 16.3005 192.435 16.5288C192.405 16.7571 192.375 16.9321 192.344 17.0539C192.298 17.2061 192.253 17.3202 192.207 17.3963C192.161 17.4724 192.093 17.5257 192.002 17.5562C191.91 17.6018 191.796 17.6246 191.659 17.6246C191.522 17.6399 191.34 17.6475 191.111 17.6475C190.244 17.6475 189.49 17.6399 188.851 17.6246C188.227 17.6094 187.694 17.5942 187.253 17.579C186.812 17.5485 186.446 17.5257 186.157 17.5105C185.868 17.5105 185.64 17.5105 185.472 17.5105C185.442 17.5105 185.343 17.5105 185.176 17.5105C185.008 17.5105 184.803 17.5181 184.559 17.5333C184.331 17.5333 184.095 17.5409 183.851 17.5562C183.608 17.5714 183.402 17.579 183.235 17.579C182.991 17.579 182.87 17.5181 182.87 17.3963C182.87 17.305 182.931 17.2594 183.052 17.2594C183.159 17.2594 183.273 17.2518 183.395 17.2365C183.517 17.2213 183.631 17.1985 183.737 17.168C183.966 17.1224 184.118 16.9854 184.194 16.7571C184.285 16.5288 184.354 16.2472 184.399 15.9124C184.46 15.4254 184.491 14.7557 184.491 13.9034C184.506 13.0358 184.513 12.0542 184.513 10.9583Z" fill="white"/>
<path d="M198.448 10.9583V6.94027C198.448 6.05752 198.448 5.33457 198.448 4.77144C198.448 4.2083 198.448 3.75931 198.448 3.42448C198.448 3.07442 198.44 2.80046 198.425 2.6026C198.425 2.38952 198.417 2.19166 198.402 2.00903C198.372 1.61331 198.295 1.31652 198.174 1.11866C198.052 0.920804 197.801 0.783825 197.42 0.707724C197.329 0.677285 197.2 0.662065 197.032 0.662065C196.88 0.646845 196.751 0.639236 196.644 0.639236C196.522 0.639236 196.462 0.593576 196.462 0.502256C196.462 0.380497 196.583 0.319618 196.827 0.319618C197.086 0.319618 197.359 0.327228 197.649 0.342447C197.938 0.342447 198.204 0.350057 198.448 0.365277C198.706 0.365277 198.92 0.372887 199.087 0.388106C199.27 0.388106 199.376 0.388106 199.407 0.388106C199.467 0.388106 199.604 0.388106 199.817 0.388106C200.046 0.372887 200.297 0.365277 200.571 0.365277C200.86 0.350057 201.142 0.342447 201.416 0.342447C201.69 0.327228 201.918 0.319618 202.1 0.319618C202.831 0.319618 203.554 0.380497 204.269 0.502256C205 0.608795 205.67 0.882753 206.278 1.32413C206.415 1.43067 206.575 1.58287 206.758 1.78073C206.94 1.96337 207.108 2.18405 207.26 2.44279C207.427 2.70153 207.564 2.99832 207.671 3.33316C207.793 3.66799 207.854 4.03327 207.854 4.42899C207.854 5.2813 207.648 6.14123 207.237 7.00876C206.826 7.86108 206.111 8.75905 205.091 9.70268C206.035 10.9051 206.895 12.0009 207.671 12.9902C208.447 13.9795 209.17 14.8318 209.84 15.5471C210.464 16.2016 211.012 16.6277 211.484 16.8256C211.955 17.0235 212.336 17.1452 212.625 17.1909C212.838 17.2213 213.021 17.2441 213.173 17.2594C213.325 17.2594 213.439 17.2594 213.515 17.2594C213.652 17.2594 213.721 17.305 213.721 17.3963C213.721 17.4724 213.683 17.5181 213.607 17.5333C213.531 17.5638 213.386 17.579 213.173 17.579H211.552C210.913 17.579 210.418 17.5485 210.068 17.4877C209.718 17.4268 209.398 17.3126 209.109 17.1452C208.622 16.8865 208.15 16.4831 207.694 15.9352C207.237 15.3721 206.682 14.6568 206.027 13.7892C205.784 13.4696 205.54 13.1424 205.297 12.8075C205.053 12.4727 204.817 12.1531 204.589 11.8487C204.376 11.5443 204.17 11.2703 203.973 11.0268C203.79 10.7681 203.645 10.5626 203.539 10.4104C203.447 10.3191 203.348 10.2734 203.242 10.2734L200.434 10.2278C200.327 10.2278 200.274 10.2887 200.274 10.4104V10.9583C200.274 12.0542 200.274 13.0358 200.274 13.9034C200.289 14.7557 200.327 15.4254 200.388 15.9124C200.419 16.2472 200.487 16.5288 200.594 16.7571C200.7 16.9854 200.929 17.1224 201.279 17.168C201.446 17.1985 201.629 17.2213 201.827 17.2365C202.04 17.2518 202.199 17.2594 202.306 17.2594C202.428 17.2594 202.489 17.305 202.489 17.3963C202.489 17.5181 202.367 17.579 202.123 17.579C201.804 17.579 201.484 17.5714 201.164 17.5562C200.845 17.5562 200.548 17.5485 200.274 17.5333C200.015 17.5333 199.795 17.5257 199.612 17.5105C199.445 17.5105 199.346 17.5105 199.315 17.5105C199.315 17.5105 199.232 17.5105 199.064 17.5105C198.912 17.5257 198.722 17.5333 198.493 17.5333C198.265 17.5485 198.029 17.5562 197.786 17.5562C197.542 17.5714 197.337 17.579 197.169 17.579C196.926 17.579 196.804 17.5181 196.804 17.3963C196.804 17.305 196.865 17.2594 196.987 17.2594C197.093 17.2594 197.207 17.2518 197.329 17.2365C197.451 17.2213 197.565 17.1985 197.671 17.168C197.9 17.1224 198.052 16.9854 198.128 16.7571C198.219 16.5288 198.288 16.2472 198.334 15.9124C198.394 15.4254 198.425 14.7557 198.425 13.9034C198.44 13.0358 198.448 12.0542 198.448 10.9583ZM200.274 1.46111V8.92647C200.274 9.04823 200.327 9.13955 200.434 9.20043C200.601 9.30697 200.913 9.39829 201.37 9.47439C201.842 9.53526 202.329 9.5657 202.831 9.5657C203.105 9.5657 203.394 9.54287 203.699 9.49722C204.003 9.43634 204.285 9.31458 204.543 9.13194C204.939 8.85798 205.266 8.42421 205.525 7.83064C205.799 7.22184 205.936 6.48368 205.936 5.61614C205.936 4.18547 205.586 3.06681 204.886 2.26015C204.186 1.4535 203.219 1.05017 201.986 1.05017C201.636 1.05017 201.324 1.06539 201.05 1.09583C200.776 1.12627 200.578 1.15671 200.457 1.18715C200.335 1.23281 200.274 1.32413 200.274 1.46111Z" fill="white"/>
<path d="M215.659 10.9583V6.94027C215.659 6.05752 215.659 5.33457 215.659 4.77144C215.659 4.2083 215.659 3.75931 215.659 3.42448C215.659 3.07442 215.652 2.80046 215.636 2.6026C215.636 2.38952 215.629 2.19166 215.614 2.00903C215.583 1.61331 215.507 1.31652 215.385 1.11866C215.264 0.920804 215.012 0.783825 214.632 0.707724C214.541 0.677285 214.411 0.662065 214.244 0.662065C214.092 0.646845 213.962 0.639236 213.856 0.639236C213.734 0.639236 213.673 0.593576 213.673 0.502256C213.673 0.380497 213.795 0.319618 214.038 0.319618C214.297 0.319618 214.571 0.319618 214.86 0.319618C215.149 0.319618 215.423 0.327228 215.682 0.342447L216.618 0.388106C216.664 0.388106 216.93 0.388106 217.417 0.388106C217.919 0.388106 218.475 0.388106 219.084 0.388106C219.708 0.388106 220.286 0.388106 220.819 0.388106C221.367 0.372887 221.709 0.365277 221.846 0.365277C222.288 0.334837 222.615 0.296788 222.828 0.251128C222.889 0.235908 222.942 0.213078 222.988 0.182638C223.033 0.152198 223.087 0.136979 223.147 0.136979C223.208 0.136979 223.239 0.205468 223.239 0.342447C223.239 0.418547 223.216 0.540306 223.17 0.707724C223.125 0.859924 223.087 1.09583 223.056 1.41545C223.056 1.47633 223.049 1.57526 223.033 1.71224C223.033 1.84922 223.026 2.00142 223.01 2.16883C222.995 2.32103 222.98 2.47323 222.965 2.62543C222.965 2.76241 222.957 2.86134 222.942 2.92222C222.927 2.9831 222.904 3.04398 222.873 3.10486C222.858 3.15052 222.828 3.17335 222.782 3.17335C222.66 3.17335 222.6 3.07442 222.6 2.87656C222.6 2.80046 222.592 2.6787 222.577 2.51128C222.561 2.34386 222.523 2.19166 222.463 2.05469C222.386 1.87205 222.249 1.71985 222.052 1.59809C221.854 1.46111 221.45 1.35457 220.842 1.27847C220.75 1.26325 220.545 1.25564 220.225 1.25564C219.906 1.24042 219.571 1.23281 219.221 1.23281C218.871 1.21759 218.543 1.20998 218.239 1.20998C217.95 1.20998 217.775 1.20998 217.714 1.20998C217.623 1.20998 217.577 1.28608 217.577 1.43828V7.73932C217.577 7.89152 217.623 7.96762 217.714 7.96762C217.79 7.96762 217.996 7.96762 218.33 7.96762C218.665 7.96762 219.03 7.96762 219.426 7.96762C219.837 7.96762 220.225 7.96762 220.591 7.96762C220.956 7.9524 221.207 7.93718 221.344 7.92196C221.618 7.89152 221.839 7.86108 222.006 7.83064C222.173 7.8002 222.31 7.7241 222.417 7.60234C222.584 7.40448 222.698 7.30555 222.759 7.30555C222.835 7.30555 222.873 7.36643 222.873 7.48819C222.873 7.56429 222.851 7.70127 222.805 7.89913C222.759 8.09698 222.721 8.38616 222.691 8.76666C222.676 8.88842 222.66 9.0254 222.645 9.1776C222.645 9.31458 222.638 9.45917 222.622 9.61136C222.622 9.74834 222.615 9.87771 222.6 9.99947C222.6 10.106 222.6 10.1821 222.6 10.2278C222.6 10.3191 222.592 10.418 222.577 10.5246C222.561 10.6159 222.516 10.6615 222.44 10.6615C222.333 10.6615 222.28 10.593 222.28 10.4561C222.28 10.3343 222.272 10.2202 222.257 10.1136C222.257 9.99186 222.234 9.85488 222.189 9.70268C222.143 9.53526 222.044 9.37546 221.892 9.22326C221.74 9.05584 221.443 8.9493 221.001 8.90364C220.849 8.88842 220.606 8.8732 220.271 8.85798C219.951 8.84276 219.616 8.83515 219.266 8.83515C218.932 8.81993 218.612 8.81232 218.308 8.81232C218.018 8.7971 217.828 8.78949 217.737 8.78949C217.63 8.78949 217.577 8.84276 217.577 8.9493V10.9583C217.577 11.1562 217.577 11.4454 217.577 11.8259C217.577 12.2064 217.577 12.6021 217.577 13.013C217.577 13.4239 217.577 13.8044 217.577 14.1545C217.577 14.5046 217.577 14.7405 217.577 14.8622C217.592 15.2579 217.63 15.5776 217.691 15.8211C217.767 16.0646 217.897 16.2548 218.079 16.3918C218.277 16.5288 218.543 16.6201 218.878 16.6658C219.213 16.7114 219.662 16.7343 220.225 16.7343C220.53 16.7343 220.895 16.7267 221.321 16.7114C221.747 16.681 222.113 16.6049 222.417 16.4831C222.721 16.3614 222.95 16.1787 223.102 15.9352C223.254 15.6765 223.368 15.3112 223.444 14.8394C223.49 14.6111 223.558 14.497 223.65 14.497C223.726 14.497 223.764 14.535 223.764 14.6111C223.779 14.6872 223.787 14.7633 223.787 14.8394C223.787 14.8851 223.771 15.0068 223.741 15.2047C223.726 15.3873 223.703 15.6004 223.673 15.8439C223.642 16.0722 223.612 16.3005 223.581 16.5288C223.551 16.7571 223.52 16.9321 223.49 17.0539C223.444 17.2061 223.399 17.3202 223.353 17.3963C223.307 17.4724 223.239 17.5257 223.147 17.5562C223.056 17.6018 222.942 17.6246 222.805 17.6246C222.668 17.6399 222.485 17.6475 222.257 17.6475C221.39 17.6475 220.636 17.6399 219.997 17.6246C219.373 17.6094 218.84 17.5942 218.399 17.579C217.957 17.5485 217.592 17.5257 217.303 17.5105C217.014 17.5105 216.786 17.5105 216.618 17.5105C216.588 17.5105 216.489 17.5105 216.321 17.5105C216.154 17.5105 215.948 17.5181 215.705 17.5333C215.477 17.5333 215.241 17.5409 214.997 17.5562C214.754 17.5714 214.548 17.579 214.381 17.579C214.137 17.579 214.016 17.5181 214.016 17.3963C214.016 17.305 214.076 17.2594 214.198 17.2594C214.305 17.2594 214.419 17.2518 214.541 17.2365C214.662 17.2213 214.777 17.1985 214.883 17.168C215.111 17.1224 215.264 16.9854 215.34 16.7571C215.431 16.5288 215.499 16.2472 215.545 15.9124C215.606 15.4254 215.636 14.7557 215.636 13.9034C215.652 13.0358 215.659 12.0542 215.659 10.9583Z" fill="white"/>
</svg>
